HIERARCHY
ROOT Hips
{
	OFFSET 0.00000 0.00000 0.00000
	CHANNELS 6 Xposition Yposition Zposition Zrotation Yrotation Xrotation 
	JOINT LHipJoint
	{
		OFFSET 0 0 0
		CHANNELS 3 Zrotation Yrotation Xrotation
		JOINT LeftHip
		{
			OFFSET 1.62329 -1.80800 0.67318
			CHANNELS 3 Zrotation Yrotation Xrotation
			JOINT LeftKnee
			{
				OFFSET 2.57139 -7.06484 0.00000
				CHANNELS 3 Zrotation Yrotation Xrotation
				JOINT LeftAnkle
				{
					OFFSET 2.52017 -6.92413 0.00000
					CHANNELS 3 Zrotation Yrotation Xrotation
					JOINT LeftToe
					{
						OFFSET 0.23295 -0.64001 2.10214
						CHANNELS 3 Zrotation Yrotation Xrotation
						End Site
						{
							OFFSET 0.00000 -0.00000 1.10139
						}
					}
				}
			}
		}
	}
	JOINT RHipJoint
	{
		OFFSET 0 0 0
		CHANNELS 3 Zrotation Yrotation Xrotation
		JOINT RightHip
		{
			OFFSET -1.48061 -1.80800 0.67318
			CHANNELS 3 Zrotation Yrotation Xrotation
			JOINT RightKnee
			{
				OFFSET -2.63258 -7.23296 0.00000
				CHANNELS 3 Zrotation Yrotation Xrotation
				JOINT RightAnkle
				{
					OFFSET -2.54779 -7.00000 0.00000
					CHANNELS 3 Zrotation Yrotation Xrotation
					JOINT RightToe
					{
						OFFSET -0.23067 -0.63376 2.12161
						CHANNELS 3 Zrotation Yrotation Xrotation
						End Site
						{
							OFFSET -0.00000 -0.00000 1.11000
						}
					}
				}
			}
		}
	}
	JOINT lowerback
	{
		OFFSET 0 0 0
		CHANNELS 3 Zrotation Yrotation Xrotation
		JOINT Chest
		{
			OFFSET -0.02108 2.07573 -0.16981
			CHANNELS 3 Zrotation Yrotation Xrotation
			JOINT Chest2
			{
				OFFSET 0.05070 2.08439 -0.03141
				CHANNELS 3 Zrotation Yrotation Xrotation
				JOINT lowerneck
				{
					OFFSET 0 0 0
					CHANNELS 3 Zrotation Yrotation Xrotation
					JOINT Neck
					{
						OFFSET -0.10731 1.60408 0.31370
						CHANNELS 3 Zrotation Yrotation Xrotation
						JOINT Head
						{
							OFFSET 0.08411 1.65679 -0.30822
							CHANNELS 3 Zrotation Yrotation Xrotation
							End Site
							{
								OFFSET 0.03911 1.69149 -0.14146
							}
						}
					}
				}
				JOINT LeftCollar
				{
					OFFSET 0 0 0
					CHANNELS 3 Zrotation Yrotation Xrotation
					JOINT LeftShoulder
					{
						OFFSET 3.52315 0.73219 -0.54694
CHANNELS 3 Zrotation Xrotation Yrotation
						JOINT LeftElbow
						{
OFFSET 0 -5.324620 -0.000000
CHANNELS 3 Zrotation Xrotation Yrotation
							JOINT LeftWrist
							{
OFFSET 0 -3.484020 -0.000000
CHANNELS 3 Zrotation Xrotation Yrotation
								JOINT lhand
								{
									OFFSET 0 0 0
CHANNELS 3 Zrotation Xrotation Yrotation
									JOINT LFingers
									{
OFFSET 0 -0.572480 -0.000000
CHANNELS 3 Zrotation Xrotation Yrotation
										End Site
										{
OFFSET 0 -0.461540 -0.000000
										}
									}
								}
								JOINT LThumb
								{
OFFSET 0 0.000000 0.000000
CHANNELS 3 Zrotation Xrotation Yrotation
									End Site
									{
OFFSET 0 -0.468590 0.468590
									}
								}
							}
						}
					}
				}
				JOINT RightCollar
				{
					OFFSET 0 0 0
					CHANNELS 3 Zrotation Yrotation Xrotation
					JOINT RightShoulder
					{
						OFFSET -3.41766 0.93592 -0.10019
CHANNELS 3 Zrotation Xrotation Yrotation
						JOINT RightElbow
						{
OFFSET 0 -5.335890 -0.000000
CHANNELS 3 Zrotation Xrotation Yrotation
							JOINT RightWrist
							{
OFFSET 0 -3.641340 -0.000000
CHANNELS 3 Zrotation Xrotation Yrotation
								JOINT rhand
								{
									OFFSET 0 0 0
CHANNELS 3 Zrotation Xrotation Yrotation
									JOINT RFingers
									{
OFFSET 0 -0.734810 -0.000000
CHANNELS 3 Zrotation Xrotation Yrotation
										End Site
										{
OFFSET 0 -0.592420 -0.000000
										}
									}
								}
								JOINT RThumb
								{
OFFSET 0 0.000000 0.000000
CHANNELS 3 Zrotation Xrotation Yrotation
									End Site
									{
OFFSET 0 -0.601470 0.601470
									}
								}
							}
						}
					}
				}
			}
		}
	}
}
MOTION
Frames: 7
Frame Time: 0.008333333333333333
-2.033500 17.852600 -5.866500 -1.884300 1.402900 4.575000 0.000000 0.000000 0.000000 -22.579000 0.025700 -10.791300 1.872500 8.595300 24.537200 0.571000 10.652300 -21.854900 0.228300 -3.075400 -8.488800 0.000000 0.000000 0.000000 18.923300 14.070600 -11.411700 -2.658800 -10.121100 29.369900 -0.930000 2.612400 -17.531800 -0.002300 0.308800 -0.848400 -3.184300 -1.904500 2.129500 2.432000 -2.592300 -0.273700 4.369400 -1.267900 -1.220900 -12.400300 -9.864200 -17.332200 6.694000 -12.043600 21.573700 2.577700 -5.778100 11.021900 -0.000000 -0.000000 0.000000 1.426200 -2.732700 -25.487200 12.666900 -20.797100 2.333700 10.914400 19.193000 -29.298400 0.000000 0.000000 0.000000 -7.125000 0.000000 0.000000 -22.409400 58.292000 7.530400 -0.000000 -0.000000 0.000000 -3.341600 3.266200 12.720900 -16.716100 -26.481900 -3.959900 -20.411000 20.271900 -0.991000 0.000000 0.000000 0.000000 7.125000 0.000000 -0.000000 4.800000 28.908500 1.887500
-2.041596 17.853846 -5.868639 -1.547967 1.463377 4.648321 0.000000 0.000000 0.000000 -22.933361 0.101261 -10.789574 1.826867 8.495703 24.229994 0.535029 10.692739 -21.550389 0.250661 -3.221554 -8.896230 0.000000 0.000000 0.000000 18.531317 13.989664 -11.582400 -2.687186 -10.170615 29.531035 -0.925386 2.789395 -17.454043 -0.000482 0.145192 -0.398822 -3.546166 -1.892496 1.863194 2.434737 -2.578621 -0.249566 4.565002 -1.263689 -1.032181 -12.476072 -9.922969 -17.282237 6.646698 -12.092855 21.493571 2.565646 -5.812974 10.990319 0.000000 0.000000 0.000000 1.265179 -2.762794 -25.156789 12.734181 -20.896543 2.357676 10.170778 18.781888 -29.285635 0.000000 0.000000 0.000000 -7.125000 0.000000 0.000000 -23.157096 58.118405 7.701671 0.000000 0.000000 0.000000 -3.482581 3.073207 12.989954 -16.700567 -26.461335 -3.953000 -20.282335 20.204172 -0.844864 0.000000 0.000000 0.000000 7.125000 0.000000 0.000000 4.906855 29.063936 1.911685
-2.047893 17.853850 -5.880986 -1.437420 1.444484 4.707155 0.000000 0.000000 0.000000 -23.041567 0.077189 -10.872852 1.818385 8.477128 24.172877 0.521615 10.712050 -21.439929 0.259207 -3.275700 -9.047265 0.000000 0.000000 0.000000 18.394596 14.029379 -11.745044 -2.703279 -10.198486 29.621965 -0.931642 2.834434 -17.507001 -0.000457 0.135928 -0.373443 -3.518467 -1.831857 1.865382 2.349768 -2.497935 -0.214092 4.458736 -1.224643 -1.010322 -12.525366 -9.981793 -17.540179 6.986766 -12.223131 21.544073 2.662203 -5.829022 11.099476 0.000000 0.000000 0.000000 1.332505 -2.814329 -25.020474 12.736941 -20.900540 2.358614 9.871744 18.831999 -29.491752 0.000000 0.000000 0.000000 -7.125000 0.000000 0.000000 -23.615024 58.241253 7.935688 0.000000 0.000000 0.000000 -3.339005 2.865614 13.258116 -16.793242 -26.584370 -3.994399 -20.563659 20.037218 -0.637555 0.000000 0.000000 0.000000 7.125000 0.000000 0.000000 4.696925 29.284301 1.804718
-2.053111 17.855636 -5.883932 -1.312874 1.522071 4.819109 0.000000 0.000000 0.000000 -23.157905 0.011867 -10.932296 1.805057 8.447729 24.082395 0.522021 10.639857 -21.370934 0.239809 -3.151171 -8.699989 0.000000 0.000000 0.000000 18.222544 13.963729 -11.924175 -2.714135 -10.217239 29.683195 -0.928655 2.948244 -17.457842 0.000000 -0.004763 0.012994 -3.543809 -1.878378 1.579741 2.276597 -2.552977 -0.104794 4.384132 -1.260758 -0.734237 -12.319593 -9.999183 -17.734010 6.948208 -12.273562 21.572916 2.600124 -5.833858 11.134115 0.000000 0.000000 0.000000 1.512722 -3.089216 -24.979174 12.615274 -20.720929 2.315370 9.758154 18.921974 -29.543146 0.000000 0.000000 0.000000 -7.125000 0.000000 0.000000 -23.769193 58.263130 8.004137 0.000000 0.000000 0.000000 -3.115080 2.477806 13.382030 -16.844710 -26.652606 -4.017395 -20.988376 19.629623 -0.718167 0.000000 0.000000 0.000000 7.125000 0.000000 0.000000 4.361895 29.198110 1.683725
-2.063015 17.855429 -5.887329 -1.465033 1.587716 4.782817 0.000000 0.000000 0.000000 -22.938337 -0.020351 -10.987917 1.827658 8.497460 24.235593 0.535946 10.560625 -21.427011 0.240381 -3.154884 -8.710329 0.000000 0.000000 0.000000 18.454234 14.052673 -11.808014 -2.696985 -10.187613 29.586395 -0.937429 2.830896 -17.564109 -0.000329 -0.116455 0.319993 -3.345927 -1.860472 1.749325 2.326846 -2.529258 -0.172545 4.332546 -1.244414 -0.907723 -12.324632 -10.039850 -17.742604 6.904564 -12.327120 21.699336 2.574537 -5.863013 11.185973 0.000000 0.000000 0.000000 1.581711 -3.014861 -25.094022 12.527310 -20.590694 2.284356 10.066133 19.193009 -29.147228 0.000000 0.000000 0.000000 -7.125000 0.000000 0.000000 -23.160430 57.969598 7.618652 0.000000 0.000000 0.000000 -3.053526 2.559234 13.411108 -17.031817 -26.899732 -4.101701 -20.561387 20.133348 -0.485068 0.000000 0.000000 0.000000 7.125000 0.000000 0.000000 4.705693 29.446619 1.789849
-2.070797 17.855550 -5.882285 -1.433591 1.670807 4.811188 0.000000 0.000000 0.000000 -22.935249 0.066797 -11.021697 1.827120 8.496357 24.232099 0.526783 10.475347 -21.251884 0.261280 -3.288500 -9.083013 0.000000 0.000000 0.000000 18.445584 14.017411 -11.852380 -2.706138 -10.203367 29.637814 -0.938825 2.760437 -17.590511 -0.000089 0.055330 -0.151931 -3.318291 -1.840899 1.787244 2.354155 -2.503243 -0.273645 4.348718 -1.226770 -1.035526 -12.353842 -10.045516 -17.432907 6.897982 -12.354422 21.548938 2.584787 -5.887865 11.076105 0.000000 0.000000 0.000000 1.508556 -2.934773 -25.138407 12.519105 -20.578516 2.281485 9.901322 19.063701 -29.233439 0.000000 0.000000 0.000000 -7.125000 0.000000 0.000000 -23.391361 58.012754 7.724754 0.000000 0.000000 0.000000 -3.055468 2.726620 13.185282 -17.044022 -26.915785 -4.107213 -20.672253 20.308765 -0.436142 0.000000 0.000000 0.000000 7.125000 0.000000 0.000000 4.621235 29.498964 1.751768
-2.080722 17.853007 -5.875899 -1.200826 1.688146 4.764031 0.000000 0.000000 0.000000 -23.181793 0.005958 -10.838404 1.805949 8.449647 24.088484 0.525666 10.517325 -21.283716 0.274937 -3.372929 -9.318691 0.000000 0.000000 0.000000 18.233307 13.990592 -11.837237 -2.736730 -10.256195 29.810485 -0.954794 2.866724 -17.725100 -0.000200 0.087890 -0.241355 -3.565056 -1.838852 1.795387 2.378821 -2.506012 -0.182579 4.512015 -1.230792 -0.934498 -12.447524 -10.074431 -17.776819 6.795476 -12.308533 21.741993 2.555310 -5.875639 11.207675 0.000000 0.000000 0.000000 1.402352 -3.002565 -25.439507 12.650572 -20.773044 2.327891 9.785242 18.677011 -29.052423 0.000000 0.000000 0.000000 -7.125000 0.000000 0.000000 -23.374608 57.822775 7.610304 0.000000 0.000000 0.000000 -3.269685 2.456271 13.157136 -16.838568 -26.644505 -4.014676 -20.432288 20.265165 -0.593794 0.000000 0.000000 0.000000 7.125000 0.000000 0.000000 4.801588 29.330737 1.839859
